<?xml version="1.0" encoding="utf-8"?>
<!-- Generator: Adobe Illustrator 23.0.6, SVG Export Plug-In . SVG Version: 6.00 Build 0)  -->
<svg version="1.1" id="Component_18_20" xmlns="http://www.w3.org/2000/svg" xmlns:xlink="http://www.w3.org/1999/xlink" x="0px"
	 y="0px" viewBox="0 0 41.9 32.3" style="enable-background:new 0 0 41.9 32.3;" xml:space="preserve">
<path id="Path_25" d="M19.8,24c-2.2-0.9-3.4,0.8-5.4,2.6c-1.9,1.7-4.5,2.3-7,1.6c-2.1-0.7,1.2,3.2,4.7,3.9c3.5,0.6,7.2,0.4,9.4-2.9
	C23.2,26.3,22,24.9,19.8,24z"/>
<path id="Path_28" d="M0.1,23.6c0.2,0.7,1.3,0.7,2.4,0.9c0.9,0.1,1.7,0.7,1.9,1.6c0.4,0.8,1.2-1.4,0.5-2.7c-0.7-1.3-2.1-1.9-3.5-1.6
	C0.1,21.9-0.1,22.8,0.1,23.6z"/>
<path id="Path_29" d="M12.8,20.1c-0.5,1.5-1.6,0.8-3,0.9c-1.4,0.2-2.5,1.1-3.1,2.4c-0.5,1.1-1-2.3-0.1-3.6c0.7-1.4,2.1-2.2,3.7-2.1
	C12,17.7,13.3,18.6,12.8,20.1z"/>
<path id="Path_26" d="M19.8,22.4c2.3,0.3,4,2.2,3.9,3.6s2.6-1.4,2.6-3.6s-2.5-3.5-4.3-3.3S17.5,22.2,19.8,22.4z"/>
<path id="Path_27" d="M23.1,17.9C20.6,17.7,41.7-0.9,41.9,0S28.1,23,27.7,21.4C27.1,19.3,25.2,17.9,23.1,17.9z"/>
</svg>
