<?xml version="1.0" encoding="utf-8"?>
<!-- Generator: Adobe Illustrator 23.0.6, SVG Export Plug-In . SVG Version: 6.00 Build 0)  -->
<svg version="1.1" id="Warstwa_1" xmlns="http://www.w3.org/2000/svg" xmlns:xlink="http://www.w3.org/1999/xlink" x="0px" y="0px"
	 viewBox="0 0 44.7 18.4" style="enable-background:new 0 0 44.7 18.4;" xml:space="preserve">
<path id="Shape_4" d="M35.3,18.4l2-3.9L33,6.3c0.2,0.5,0.3,1.1,0.3,1.7v5.1c0,0.6,0.1,1.5,0.1,1.5h-2.1c0,0-0.1-0.7-0.1-1.5
	c0,0-1.1,1.9-4.4,1.9c-2.4,0-4.2-1.2-4.2-3.4c0-0.1,0-0.2,0-0.4c-0.6,2.3-2.7,3.9-5.1,3.8c-1.6,0.1-3.1-0.5-4.1-1.8
	c0,0.7-0.1,1.4-0.1,1.4h-2.2c0,0,0.1-1,0.1-1.8v-2.7H2.3c0,1.8,1.4,3.3,3.2,3.3c0.1,0,0.2,0,0.2,0c1.3,0.1,2.5-0.6,2.9-1.8H11
	c0,0-0.3,3.3-5.1,3.3c-4.1,0-5.9-2-5.9-5.3C0,5.4,2.6,4,5.8,4c4.2,0,5.4,2.9,5.5,4.8V0h2.3v5.8c0,0,1-1.7,4.1-1.7
	C20.4,4,22.8,6.2,22.9,9c0,0.2,0,0.3,0,0.5c0,0.4,0,0.7-0.1,1.1c0.5-1.6,2.4-2.3,5.5-2.3H31V7.7c0-1.4-1.2-2.1-2.8-2.1
	c-2.4,0-2.5,1.6-2.5,1.6h-2.4c0-0.4,0.3-3.1,5.1-3.1c1.6,0,3.4,0.4,4.3,1.7L32,4.5h2.7l3.8,7.9l3.8-7.9h2.4l-6.9,14h-2.5V18.4z
	 M25,11.6c0,1,0.7,1.9,2.4,1.9c3.1,0,3.6-2.2,3.6-3.1V9.7C27.5,9.7,25,9.7,25,11.6L25,11.6z M13.5,9.5c0,2,1.2,3.9,3.5,3.9
	c2,0,3.6-1.7,3.5-3.7c0-0.1,0-0.1,0-0.2c0.2-1.9-1.2-3.6-3.2-3.8c-0.1,0-0.2,0-0.3,0C14.6,5.6,13.5,7.6,13.5,9.5L13.5,9.5z M2.4,8.6
	h6.5c0-1.6-1.2-3-2.9-3c-0.1,0-0.2,0-0.3,0C4,5.5,2.5,6.7,2.4,8.6C2.4,8.5,2.4,8.5,2.4,8.6L2.4,8.6z"/>
</svg>
