<svg id="details_icon" data-name="details icon" xmlns="http://www.w3.org/2000/svg" width="36.011" height="22.007" viewBox="0 0 36.011 22.007">
  <g id="icon" transform="translate(-1504.994 -1285.996)" fill="rgba(1,1,1,0)">
    <path d="M 1523.00048828125 1306.503295898438 L 1522.988647460938 1306.503295898438 C 1520.984619140625 1306.501098632812 1518.897094726562 1306.032958984375 1516.785766601562 1305.111694335938 C 1515.046997070312 1304.352905273438 1513.287231445312 1303.287109375 1511.555541992188 1301.943603515625 C 1508.589599609375 1299.642822265625 1506.697387695312 1297.29736328125 1506.4990234375 1297.04736328125 C 1506.496704101562 1297.03759765625 1506.494018554688 1297.021728515625 1506.494018554688 1297.001342773438 C 1506.494018554688 1296.978759765625 1506.497192382812 1296.961181640625 1506.5 1296.950927734375 C 1506.783325195312 1296.5947265625 1508.640747070312 1294.317749023438 1511.555419921875 1292.056030273438 C 1513.287231445312 1290.712280273438 1515.046875 1289.646118164062 1516.785400390625 1288.887329101562 C 1518.896484375 1287.965942382812 1520.983642578125 1287.497802734375 1522.989013671875 1287.495849609375 C 1524.996337890625 1287.495849609375 1527.0869140625 1287.962890625 1529.201049804688 1288.883911132812 C 1530.942138671875 1289.642333984375 1532.7041015625 1290.70849609375 1534.43798828125 1292.052978515625 C 1537.353881835938 1294.31396484375 1539.214111328125 1296.59326171875 1539.498657226562 1296.950805664062 C 1539.50146484375 1296.961181640625 1539.504638671875 1296.978759765625 1539.504638671875 1297.001342773438 C 1539.504638671875 1297.022583007812 1539.501831054688 1297.039306640625 1539.499267578125 1297.04931640625 C 1539.287231445312 1297.31591796875 1537.388793945312 1299.660278320312 1534.439453125 1301.94775390625 C 1532.70654296875 1303.291748046875 1530.94580078125 1304.357666015625 1529.206298828125 1305.115966796875 C 1527.09423828125 1306.036499023438 1525.00634765625 1306.503295898438 1523.00048828125 1306.503295898438 Z" stroke="none"/>
    <path d="M 1523.00048828125 1305.003295898438 C 1524.798828125 1305.003295898438 1526.68505859375 1304.578491210938 1528.60693359375 1303.740844726562 C 1530.232543945312 1303.032348632812 1531.885498046875 1302.0302734375 1533.520141601562 1300.762451171875 C 1535.359375 1299.336059570312 1536.761596679688 1297.896606445312 1537.567138671875 1297.001586914062 C 1536.756713867188 1296.102416992188 1535.348388671875 1294.656982421875 1533.518798828125 1293.238403320312 C 1531.88330078125 1291.97021484375 1530.22900390625 1290.9677734375 1528.60205078125 1290.259033203125 C 1526.677978515625 1289.420776367188 1524.7890625 1288.995849609375 1522.990478515625 1288.995849609375 C 1521.1923828125 1288.99755859375 1519.306518554688 1289.423461914062 1517.385498046875 1290.262084960938 C 1515.7607421875 1290.971069335938 1514.108642578125 1291.973388671875 1512.474975585938 1293.241088867188 C 1510.647583007812 1294.659057617188 1509.241333007812 1296.102905273438 1508.431640625 1297.001342773438 C 1509.234375 1297.8935546875 1510.633056640625 1299.32958984375 1512.474975585938 1300.758422851562 C 1514.108520507812 1302.025756835938 1515.7607421875 1303.02783203125 1517.3857421875 1303.73681640625 C 1519.307250976562 1304.575317382812 1521.193359375 1305.001342773438 1522.988647460938 1305.003295898438 L 1523.00048828125 1305.003295898438 M 1523.00048828125 1308.003295898438 L 1522.988647460938 1308.003295898438 C 1513.30615234375 1307.992919921875 1505.625854492188 1298.36474609375 1505.304077148438 1297.954467773438 C 1505.105346679688 1297.703002929688 1504.994018554688 1297.360229492188 1504.994018554688 1297.001342773438 C 1504.994018554688 1296.642456054688 1505.105346679688 1296.298706054688 1505.302978515625 1296.046264648438 C 1505.625854492188 1295.636962890625 1513.30615234375 1286.005004882812 1522.987548828125 1285.995849609375 C 1532.68505859375 1285.995849609375 1540.372802734375 1295.636962890625 1540.69580078125 1296.046264648438 C 1540.893432617188 1296.298706054688 1541.004638671875 1296.642456054688 1541.004638671875 1297.001342773438 C 1541.004638671875 1297.360229492188 1540.893432617188 1297.703002929688 1540.69580078125 1297.954467773438 C 1540.372802734375 1298.365600585938 1532.68505859375 1308.003295898438 1523.00048828125 1308.003295898438 Z" stroke="none" fill="#010101"/>
  </g>
  <g id="icon-2" data-name="icon" transform="translate(13.006 6.004)" fill="rgba(1,1,1,0)" stroke="#010101" stroke-width="24">
    <circle cx="5" cy="5" r="5" stroke="none"/>
    <circle cx="5" cy="5" r="7" fill="none"/>
  </g>
</svg>
