<svg id="favorite" xmlns="http://www.w3.org/2000/svg" width="27.007" height="23.993" viewBox="0 0 27.007 23.993">
  <g id="icon" transform="translate(-1508.993 -1207.006)" fill="rgba(255,255,255,0)">
    <path d="M 1522.420532226562 1229.499267578125 C 1522.19921875 1229.499267578125 1521.99755859375 1229.417846679688 1521.83740234375 1229.263671875 L 1521.790649414062 1229.218627929688 L 1521.740234375 1229.177856445312 C 1521.189575195312 1228.732543945312 1518.303466796875 1226.3583984375 1515.559814453125 1223.339599609375 C 1514.024780273438 1221.650512695312 1512.813354492188 1220.06591796875 1511.95947265625 1218.629638671875 C 1510.986083984375 1216.992553710938 1510.492553710938 1215.58349609375 1510.492553710938 1214.441528320312 C 1510.492553710938 1212.75634765625 1511.0791015625 1211.237548828125 1512.14404296875 1210.1650390625 C 1513.206176757812 1209.095458984375 1514.70849609375 1208.50634765625 1516.37451171875 1208.50634765625 C 1518.314697265625 1208.50634765625 1520.12744140625 1209.470458984375 1521.223754882812 1211.085571289062 L 1522.46435546875 1212.9130859375 L 1523.70556640625 1211.0859375 C 1524.802978515625 1209.470703125 1526.6396484375 1208.50634765625 1528.618774414062 1208.50634765625 C 1530.284301757812 1208.50634765625 1531.786376953125 1209.095336914062 1532.848266601562 1210.164916992188 C 1533.913208007812 1211.237670898438 1534.499755859375 1212.75634765625 1534.499755859375 1214.441528320312 C 1534.499755859375 1216.520385742188 1532.676025390625 1219.657348632812 1529.364379882812 1223.274536132812 C 1526.58740234375 1226.307861328125 1523.64013671875 1228.74169921875 1523.077514648438 1229.198852539062 L 1523.027709960938 1229.2392578125 L 1522.981567382812 1229.283813476562 C 1522.839721679688 1229.420776367188 1522.63525390625 1229.499267578125 1522.420532226562 1229.499267578125 Z" stroke="none"/>
    <path d="M 1522.4208984375 1227.796752929688 C 1523.359497070312 1227.017700195312 1525.873657226562 1224.8662109375 1528.258056640625 1222.261596679688 C 1529.749267578125 1220.6328125 1530.918823242188 1219.123779296875 1531.734130859375 1217.776611328125 C 1532.835327148438 1215.956909179688 1532.999755859375 1214.906005859375 1532.999755859375 1214.441528320312 C 1532.999755859375 1211.788696289062 1531.239135742188 1210.00634765625 1528.618774414062 1210.00634765625 C 1527.137084960938 1210.00634765625 1525.76416015625 1210.72509765625 1524.946411132812 1211.928833007812 L 1522.463989257812 1215.5830078125 L 1519.982666015625 1211.927978515625 C 1519.165893554688 1210.724731445312 1517.817016601562 1210.00634765625 1516.37451171875 1210.00634765625 C 1513.75341796875 1210.00634765625 1511.992553710938 1211.788696289062 1511.992553710938 1214.441528320312 C 1511.992553710938 1215.266235351562 1512.448364257812 1217.685791015625 1516.669921875 1222.330688476562 C 1519.040283203125 1224.93896484375 1521.519775390625 1227.052490234375 1522.4208984375 1227.796752929688 M 1522.420532226562 1230.999267578125 C 1521.812377929688 1230.999267578125 1521.235717773438 1230.766479492188 1520.797119140625 1230.34423828125 C 1519.6103515625 1229.384643554688 1508.992553710938 1220.615966796875 1508.992553710938 1214.441528320312 C 1508.992553710938 1210.132690429688 1512.097534179688 1207.00634765625 1516.37451171875 1207.00634765625 C 1518.821899414062 1207.00634765625 1521.086547851562 1208.212646484375 1522.46484375 1210.243041992188 C 1523.83740234375 1208.22265625 1526.142333984375 1207.00634765625 1528.618774414062 1207.00634765625 C 1532.894653320312 1207.00634765625 1535.999755859375 1210.132690429688 1535.999755859375 1214.441528320312 C 1535.999755859375 1220.463623046875 1525.248046875 1229.368041992188 1524.023315429688 1230.363037109375 C 1523.605346679688 1230.766479492188 1523.028564453125 1230.999267578125 1522.420532226562 1230.999267578125 Z" stroke="none" fill="#010101"/>
  </g>
</svg>
