<?xml version="1.0" encoding="utf-8"?>
<!-- Generator: Adobe Illustrator 23.0.6, SVG Export Plug-In . SVG Version: 6.00 Build 0)  -->
<svg version="1.1" id="Warstwa_1" xmlns="http://www.w3.org/2000/svg" xmlns:xlink="http://www.w3.org/1999/xlink" x="0px" y="0px"
	 viewBox="0 0 17.8 17.9" style="enable-background:new 0 0 17.8 17.9;" xml:space="preserve">
<path id="Shape_4" d="M5.2,17.9c-0.7,0-1.5-0.2-2.2-0.4C1.9,17,0.9,16,0.5,14.8c-0.3-0.7-0.4-1.4-0.4-2.2C0,11.7,0,11.4,0,9
	s0-2.7,0.1-3.7c0-0.7,0.2-1.5,0.4-2.2c0.5-1.2,1.4-2.2,2.6-2.6c0.7-0.3,1.4-0.4,2.2-0.4C6.2,0,6.5,0,8.9,0s2.7,0,3.7,0.1
	c0.7,0,1.5,0.2,2.2,0.4c0.6,0.2,1.1,0.6,1.6,1c0.5,0.4,0.8,1,1,1.6c0.3,0.7,0.4,1.4,0.4,2.2c0,1,0.1,1.3,0.1,3.7s0,2.7-0.1,3.7
	c0,0.7-0.2,1.5-0.4,2.2c-0.2,0.6-0.6,1.1-1,1.6c-0.4,0.5-1,0.8-1.6,1c-0.7,0.3-1.4,0.4-2.2,0.4c-0.9,0-1.3,0.1-3.7,0.1
	S6.2,17.9,5.2,17.9L5.2,17.9z M5.3,1.7C4.7,1.7,4.2,1.8,3.6,2C2.9,2.3,2.3,2.9,2,3.7C1.8,4.2,1.7,4.8,1.7,5.4c0,0.9-0.1,1.2-0.1,3.6
	s0,2.7,0.1,3.6c0,0.6,0.1,1.1,0.3,1.7C2.3,15,2.9,15.7,3.6,16c0.5,0.2,1.1,0.3,1.7,0.3c0.9,0,1.2,0.1,3.6,0.1s2.7,0,3.6-0.1
	c0.6,0,1.1-0.1,1.7-0.3c0.4-0.1,0.7-0.4,1-0.7c0.3-0.3,0.5-0.6,0.7-1c0.2-0.5,0.3-1.1,0.3-1.7c0-0.9,0.1-1.2,0.1-3.6s0-2.7-0.1-3.6
	c0-0.6-0.1-1.1-0.3-1.7c-0.3-0.8-0.9-1.4-1.7-1.7c-0.5-0.2-1.1-0.3-1.7-0.3c-0.9,0-1.2-0.1-3.6-0.1S6.2,1.6,5.3,1.7L5.3,1.7z M4.3,9
	c0-2.5,2.1-4.6,4.6-4.5c2.5,0,4.6,2.1,4.5,4.6c0,2.5-2.1,4.5-4.6,4.5C6.4,13.6,4.3,11.5,4.3,9L4.3,9z M5.9,9c0,1.6,1.4,3,3,2.9
	c1.6,0,3-1.4,2.9-3c0-1.6-1.3-2.9-3-2.9C7.2,6,5.9,7.3,5.9,9C5.9,9,5.9,9,5.9,9L5.9,9z M12.6,4.2c0-0.6,0.5-1.1,1.1-1.1
	s1.1,0.5,1.1,1.1c0,0.6-0.5,1.1-1.1,1.1c0,0,0,0,0,0C13.1,5.3,12.6,4.8,12.6,4.2L12.6,4.2z"/>
</svg>
