<svg xmlns="http://www.w3.org/2000/svg" width="182" height="182" viewBox="0 0 182 182">
  <g id="Group_300" data-name="Group 300" transform="translate(-2273 -841.84)">
    <g id="Group_39" data-name="Group 39" transform="translate(150)">
      <rect id="Rectangle_6_copy" data-name="Rectangle 6 copy" width="180" height="180" rx="10" transform="translate(2124 842.84)" fill="#fff" stroke-dasharray="4 10" stroke-linecap="round" stroke-linejoin="round" stroke-width="2" stroke="#f88c00"/>
      <g id="Component_20_18" data-name="Component 20 – 18" transform="translate(2144 878)">
        <path id="Path_18" data-name="Path 18" d="M-268.481,627.337l-2-73.182,2,6,17.073,12.783,14.8-22.6-44.433-28s-6.742,13.6-25.6,13.6-25.979-13.6-25.979-13.6l-44.25,27.847,14.917,22.75,17.167-12.783,2-6-2,73.182S-334.344,632-308.109,632-268.481,627.337-268.481,627.337Z" transform="translate(376.874 -521.167)" fill="#fff" stroke="#f88c00" stroke-linejoin="round" stroke-width="2"/>
        <g id="Path_17" data-name="Path 17" transform="translate(351.217 -536.997)" fill="none" stroke-linecap="round" stroke-linejoin="bevel">
          <path d="M-307.3,537.392c.083,2.229,11.433,14.25,26.417,14.25s26.1-11.833,26.021-14.062-11.454,4.849-26.021,5.188S-307.384,535.163-307.3,537.392Z" stroke="none"/>
          <path d="M -259.0115661621094 540.1686401367188 C -259.1784973144531 540.2250366210938 -259.3434143066406 540.2809448242188 -259.5041809082031 540.33544921875 C -264.1647338867188 541.915771484375 -271.9650573730469 544.5607299804688 -280.8371887207031 544.7667846679688 C -281.1535339355469 544.774169921875 -281.4755249023438 544.77783203125 -281.7942199707031 544.77783203125 C -290.3136291503906 544.77783203125 -297.8320922851562 542.1644897460938 -302.5914001464844 540.4177856445312 C -301.4422607421875 541.5231323242188 -299.9137878417969 542.7999877929688 -297.9683532714844 544.0994262695312 C -294.1825866699219 546.6280517578125 -288.1455078125 549.642333984375 -280.8836364746094 549.642333984375 C -273.6449279785156 549.642333984375 -267.7063598632812 546.702880859375 -263.9991760253906 544.237060546875 C -261.6752624511719 542.6912841796875 -260.0306091308594 541.20556640625 -259.0115661621094 540.1686401367188 M -306.7998962402344 536.9970703125 C -304.4554443359375 536.9970703125 -294.1614990234375 542.7778930664062 -281.7942504882812 542.7778930664062 C -281.4925537109375 542.7778930664062 -281.1876831054688 542.7744140625 -280.8836364746094 542.767333984375 C -268.2916870117188 542.474853515625 -258.0881042480469 537.1458740234375 -255.4991760253906 537.1464233398438 C -255.0932006835938 537.146484375 -254.8740539550781 537.2776489257812 -254.8627624511719 537.579833984375 C -254.7794189453125 539.8090209960938 -265.8998718261719 551.642333984375 -280.8836364746094 551.642333984375 C -295.8674011230469 551.642333984375 -307.2169189453125 539.6215209960938 -307.3002624511719 537.392333984375 C -307.310546875 537.1172485351562 -307.1380310058594 536.9970703125 -306.7998962402344 536.9970703125 Z" stroke="none" fill="#f88c00"/>
        </g>
        <path id="Path_30" data-name="Path 30" d="M38.021,48.351l4.33-4.33" transform="translate(0.896 -2.989)" fill="none" stroke="#f88c00" stroke-linecap="round" stroke-width="2"/>
        <path id="Path_31" data-name="Path 31" d="M38.021,48.351l8.33-8.33" transform="translate(0.896 24.028)" fill="none" stroke="#f88c00" stroke-linecap="round" stroke-width="2"/>
        <path id="Path_33" data-name="Path 33" d="M38.021,48.351l5.33-5.33" transform="translate(0.896 3.765)" fill="none" stroke="#f88c00" stroke-linecap="round" stroke-width="2"/>
        <path id="Path_34" data-name="Path 34" d="M38.021,48.351l6.33-6.33" transform="translate(0.896 10.52)" fill="none" stroke="#f88c00" stroke-linecap="round" stroke-width="2"/>
        <path id="Path_35" data-name="Path 35" d="M38.021,48.351l7.33-7.33" transform="translate(0.896 17.274)" fill="none" stroke="#f88c00" stroke-linecap="round" stroke-width="2"/>
      </g>
    </g>
  </g>
</svg>
