<?xml version="1.0" encoding="utf-8"?>
<!-- Generator: Adobe Illustrator 23.0.6, SVG Export Plug-In . SVG Version: 6.00 Build 0)  -->
<svg version="1.1" id="Warstwa_1" xmlns="http://www.w3.org/2000/svg" xmlns:xlink="http://www.w3.org/1999/xlink" x="0px" y="0px"
	 viewBox="0 0 18.8 15.9" style="enable-background:new 0 0 18.8 15.9;" xml:space="preserve">
<path d="M0,14.1c0.3,0,0.6,0.1,0.9,0.1c1.7,0,3.4-0.6,4.8-1.7C4,12.4,2.6,11.3,2.1,9.7c0.2,0,0.5,0.1,0.7,0.1c0.3,0,0.7,0,1-0.1
	C2,9.2,0.7,7.5,0.8,5.7c0,0,0,0,0-0.1c0.5,0.3,1.1,0.5,1.7,0.5c-1.1-0.8-1.7-2-1.7-3.3c0-0.7,0.2-1.4,0.5-2c1.9,2.5,4.8,4,7.9,4.2
	C9.2,4.6,9.1,4.3,9.1,4c0-2.2,1.7-4,3.9-4c1.1,0,2.1,0.5,2.8,1.3c0.9-0.2,1.7-0.5,2.4-1C18,1.2,17.4,2,16.6,2.5
	c0.8-0.1,1.5-0.3,2.2-0.6c-0.5,0.8-1.2,1.5-1.9,2.1c0,0.2,0,0.3,0,0.5c0,5.3-3.9,11.4-11,11.4C3.8,15.9,1.7,15.3,0,14.1L0,14.1z"/>
</svg>
