<svg xmlns="http://www.w3.org/2000/svg" width="181.5" height="181.5"><g data-name="Group 38" transform="translate(-2123 -841.84)"><rect data-name="Rectangle 6 copy" width="179.5" height="179.5" rx="10" transform="translate(2124 842.84)" fill="none" stroke-dasharray="4 10" stroke-linecap="round" stroke-linejoin="round" stroke-width="2" stroke="#6565ff"/><g data-name="Component 19 – 16"><path data-name="Path 11" d="M2181.412 935.648c-.316.158 3.081-34.614 34.894-37.242-.005.007 3.094-2.406 6.188-2.406s4.5.906 6.465 3.075c30.848 7.391 31.1 32.949 27.453 48.476-3.856 16.43-18.945-6.986-48.621-11.568a119.155 119.155 0 00-26.379-.335z" fill="none" stroke="#6565ff" stroke-width="2"/><path data-name="Path 12" d="M2184.931 946.656a49.493 49.493 0 01-12.875 8.625c-6.527 2.934-13.945 3.832-14.228-3.37 0-.1-.007-.2 0-.607-.089-10.8 22.44-11.017 37.56 1.278 15.257 12.407 41.673 9.075 43.673-10.675" fill="none" stroke="#6565ff" stroke-linecap="round" stroke-width="3"/><path data-name="Path 13" d="M2158.056 948.125s5.081-10.689 23.691-12.533" fill="none" stroke="#6565ff" stroke-linecap="round" stroke-width="2"/><path data-name="Path 14" d="M2202.469 914.34a51.685 51.685 0 0113.961-16" fill="none" stroke="#6565ff" stroke-linecap="round" stroke-width="2"/><path data-name="Path 16" d="M2166.605 943.318c-3.431.615-3.59.561-5.837 2.458s-2.5 2.7-2.962 5.192-.616 3.135 1.119 4.792 1.817 2.125 5.631 1.771 4.609-.394 9.625-3.187 9.784-4.687 9.875-7.375-4.7-2.844-9.562-3.651-4.458-.615-7.889 0z" fill="#6565ff"/><path data-name="Path 15" d="M2228.869 898.969c4.523 5.828 7.688 13.188 9.313 25.313" fill="none" stroke="#6565ff" stroke-linecap="round" stroke-width="2"/></g></g></svg>