<svg xmlns="http://www.w3.org/2000/svg" width="182" height="182"><g data-name="Group 300"><g data-name="Group 39" transform="translate(-2123 -841.84)"><rect data-name="Rectangle 6 copy" width="180" height="180" rx="10" transform="translate(2124 842.84)" fill="#fff" stroke-dasharray="4 10" stroke-linecap="round" stroke-linejoin="round" stroke-width="2" stroke="#f88c00"/><g data-name="Component 20 – 18"><path data-name="Path 18" d="M2252.393 984.17l-2-73.182 2 6 17.073 12.783 14.8-22.6-44.433-28s-6.742 13.6-25.6 13.6-25.979-13.6-25.979-13.6l-44.25 27.847 14.917 22.75 17.167-12.783 2-6-2 73.182s10.442 4.666 36.677 4.666 39.628-4.663 39.628-4.663z" fill="#fff" stroke="#f88c00" stroke-linejoin="round" stroke-width="2"/><g data-name="Path 17" fill="none" stroke-linecap="round" stroke-linejoin="bevel"><path d="M2187.917 878.395c.083 2.229 11.433 14.25 26.417 14.25s26.1-11.833 26.021-14.062-11.454 4.849-26.021 5.188-26.501-7.605-26.417-5.376z"/><path d="M2236.205 881.172l-.492.166c-4.66 1.58-12.461 4.226-21.333 4.432-.317.007-.639.01-.957.01-8.52 0-16.038-2.613-20.797-4.36 1.149 1.106 2.677 2.383 4.623 3.682 3.785 2.53 9.822 5.543 17.084 5.543 7.24 0 13.178-2.94 16.885-5.405 2.324-1.546 3.968-3.031 4.987-4.068M2188.417 878c2.345 0 12.639 5.78 25.006 5.78.301 0 .606-.003.91-.01 12.592-.292 22.796-5.621 25.385-5.62.406 0 .625.13.636.433.084 2.229-11.037 14.062-26.02 14.062-14.984 0-26.334-12.02-26.417-14.25-.01-.275.162-.395.5-.395z" fill="#f88c00"/></g><path data-name="Path 30" d="M2182.917 923.362l4.33-4.33" fill="none" stroke="#f88c00" stroke-linecap="round" stroke-width="2"/><path data-name="Path 31" d="M2182.917 950.379l8.33-8.33" fill="none" stroke="#f88c00" stroke-linecap="round" stroke-width="2"/><path data-name="Path 33" d="M2182.917 930.116l5.33-5.33" fill="none" stroke="#f88c00" stroke-linecap="round" stroke-width="2"/><path data-name="Path 34" d="M2182.917 936.871l6.33-6.33" fill="none" stroke="#f88c00" stroke-linecap="round" stroke-width="2"/><path data-name="Path 35" d="M2182.917 943.625l7.33-7.33" fill="none" stroke="#f88c00" stroke-linecap="round" stroke-width="2"/></g></g></g></svg>